<?xml version="1.0" encoding="UTF-8" standalone="no"?>
<!DOCTYPE svg PUBLIC "-//W3C//DTD SVG 20010904//EN"
              "http://www.w3.org/TR/2001/REC-SVG-20010904/DTD/svg10.dtd">

<svg xmlns="http://www.w3.org/2000/svg"
     width="5.68889in" height="5.68889in"
     viewBox="0 0 512 512">
  <path id="Selection"
        fill="#0d47a1" stroke="none"
        d="M 252.00,0.42
           C 252.00,0.42 273.00,1.00 273.00,1.00
             288.07,1.18 313.30,6.38 328.00,10.58
             404.37,32.37 465.27,89.37 494.20,163.00
             502.44,183.95 510.73,216.53 511.04,239.00
             511.04,239.00 511.04,248.00 511.04,248.00
             511.04,248.00 511.92,256.00 511.92,256.00
             511.92,256.00 511.00,271.00 511.00,271.00
             510.97,288.30 505.16,316.31 499.98,333.00
             475.43,411.95 412.63,474.53 334.00,499.66
             317.84,504.82 288.77,510.92 272.00,511.00
             272.00,511.00 256.00,511.92 256.00,511.92
             256.00,511.92 248.00,511.04 248.00,511.04
             248.00,511.04 239.00,511.04 239.00,511.04
             216.53,510.73 183.95,502.44 163.00,494.20
             132.39,482.17 106.43,465.93 82.00,443.83
             40.07,405.92 12.37,351.55 3.44,296.00
             2.15,287.97 1.01,277.09 1.00,269.00
             1.00,269.00 0.08,256.00 0.08,256.00
             0.08,256.00 0.96,248.00 0.96,248.00
             0.96,248.00 0.96,239.00 0.96,239.00
             0.96,239.00 2.72,222.00 2.72,222.00
             6.33,194.22 14.30,168.29 26.32,143.00
             55.64,81.29 114.70,31.39 180.00,11.72
             196.75,6.67 223.67,1.03 241.00,1.00
             245.57,0.99 247.36,1.08 252.00,0.42 Z
           M 141.00,96.30
           C 133.87,97.65 128.66,99.67 123.17,104.62
             100.35,125.20 113.76,164.70 145.00,165.96
             176.17,167.22 193.43,130.17 172.68,107.09
             169.63,103.70 165.18,100.69 161.00,98.88
             154.27,95.97 148.20,95.58 141.00,96.30 Z
           M 400.00,384.00
           C 400.00,384.00 400.00,289.00 400.00,289.00
             400.00,265.39 401.12,242.17 391.14,220.00
             381.21,197.96 359.41,187.04 336.00,187.00
             336.00,187.00 322.00,187.00 322.00,187.00
             314.46,187.09 303.75,190.05 297.00,193.37
             285.23,199.17 279.77,205.97 272.00,216.00
             272.00,216.00 272.00,198.00 272.00,198.00
             272.00,198.00 270.40,192.02 270.40,192.02
             270.40,192.02 263.00,191.00 263.00,191.00
             263.00,191.00 228.00,191.00 228.00,191.00
             228.00,191.00 214.60,192.02 214.60,192.02
             214.60,192.02 213.00,200.00 213.00,200.00
             213.00,200.00 213.00,341.00 213.00,341.00
             213.00,341.00 213.00,371.00 213.00,371.00
             213.00,371.00 214.02,382.40 214.02,382.40
             214.02,382.40 222.00,384.00 222.00,384.00
             222.00,384.00 274.00,384.00 274.00,384.00
             274.00,384.00 274.00,309.00 274.00,309.00
             274.00,294.64 272.87,276.64 277.04,263.00
             281.81,247.39 294.05,239.70 310.00,240.02
             315.30,240.12 321.62,241.57 326.00,244.65
             337.41,252.66 339.84,269.99 340.00,283.00
             340.00,283.00 340.00,384.00 340.00,384.00
             340.00,384.00 400.00,384.00 400.00,384.00 Z
           M 177.00,191.00
           C 177.00,191.00 116.00,191.00 116.00,191.00
             116.00,191.00 116.00,384.00 116.00,384.00
             116.00,384.00 177.00,384.00 177.00,384.00
             177.00,384.00 177.00,191.00 177.00,191.00 Z" />
</svg>
