<?xml version="1.0" encoding="UTF-8" standalone="no"?>
<!DOCTYPE svg PUBLIC "-//W3C//DTD SVG 20010904//EN"
              "http://www.w3.org/TR/2001/REC-SVG-20010904/DTD/svg10.dtd">

<svg xmlns="http://www.w3.org/2000/svg"
     width="1.94667in" height="1.47667in"
     viewBox="0 0 584 443">
  <path id="Logo Top"
        fill="#002171" stroke="none" fill-rule="evenodd"
        d="M 130.00,221.00
           C 130.00,221.00 130.00,69.00 130.00,69.00
             130.00,69.00 146.50,36.75 180.50,22.25
             206.30,6.13 239.09,2.09 239.09,2.09
             239.09,2.09 269.87,-1.96 294.62,2.25
             317.59,6.15 335.25,19.00 335.25,19.00
             335.25,19.00 341.41,25.14 346.50,31.75
             352.39,39.40 357.50,49.50 357.50,49.50
             357.50,49.50 381.70,27.68 407.62,14.88
             430.25,3.70 455.02,1.33 455.33,1.33
             455.68,1.33 473.08,-0.57 489.00,0.38
             504.05,1.27 518.62,4.50 518.62,4.50
             518.62,4.50 533.64,8.35 544.88,15.88
             556.41,23.60 564.16,35.00 564.33,35.00
             564.47,35.00 576.86,52.79 580.50,81.62
             584.12,124.00 582.38,180.00 582.38,180.00
             582.38,180.00 583.25,383.38 583.25,383.38
             583.25,383.38 130.00,221.00 130.00,221.00 Z
          M 152.04,166.44
           C 152.04,166.44 152.02,151.33 152.02,151.33
             152.02,151.33 159.56,145.34 168.88,142.50
             180.07,139.08 193.50,138.88 193.50,138.88
             193.50,138.88 202.37,138.65 207.12,142.00
             212.52,145.80 214.22,152.58 214.22,152.58
             214.22,152.58 214.43,188.78 214.43,188.78
             214.43,188.78 152.04,166.44 152.04,166.44 Z
           M 367.19,243.56
           C 367.19,243.56 367.12,151.00 367.12,151.00
             367.12,151.00 373.99,145.71 382.09,142.78
             390.55,139.72 400.25,139.00 400.25,139.00
             400.25,139.00 414.01,136.88 419.31,139.62
             427.75,143.99 429.56,154.06 429.56,154.06
             429.56,154.06 429.62,265.69 429.62,265.69
             429.62,265.69 367.19,243.56 367.19,243.56 Z"/>
  <path id="Logo Bottom"
        fill="#0d47a1" stroke="black" stroke-width="1" fill-rule="evenodd"
        d="M 1.00,11.00
           C 1.00,11.00 117.00,11.00 117.00,11.00
             117.00,11.00 117.00,219.00 117.00,219.00
             117.00,219.00 118.02,226.59 118.02,226.59
             118.02,226.59 128.00,231.66 128.00,231.66
             128.00,231.66 152.00,240.00 152.00,240.00
             152.00,240.00 152.00,442.00 152.00,442.00
             152.00,442.00 1.00,442.00 1.00,442.00
             1.00,442.00 1.00,11.00 1.00,11.00 Z
           M 215.00,265.00
           C 215.00,265.00 256.00,279.31 256.00,279.31
             256.00,279.31 333.00,307.19 333.00,307.19
             333.00,307.19 357.00,315.95 357.00,315.95
             357.00,315.95 365.98,320.42 365.98,320.42
             365.98,320.42 367.00,328.00 367.00,328.00
             367.00,328.00 367.00,442.00 367.00,442.00
             367.00,442.00 215.00,442.00 215.00,442.00
             215.00,442.00 215.00,265.00 215.00,265.00 Z
           M 430.00,343.00
           C 430.00,343.00 465.00,355.31 465.00,355.31
             465.00,355.31 547.00,385.31 547.00,385.31
             547.00,385.31 573.00,394.81 573.00,394.81
             573.00,394.81 581.96,399.42 581.96,399.42
             581.96,399.42 581.96,411.00 581.96,411.00
             581.96,411.00 581.96,442.00 581.96,442.00
             581.96,442.00 430.00,442.00 430.00,442.00
             430.00,442.00 430.00,343.00 430.00,343.00 Z" />
</svg>
