<?xml version="1.0" encoding="UTF-8" standalone="no"?>
<!DOCTYPE svg PUBLIC "-//W3C//DTD SVG 20010904//EN"
              "http://www.w3.org/TR/2001/REC-SVG-20010904/DTD/svg10.dtd">

<svg xmlns="http://www.w3.org/2000/svg"
     width="4.33333in" height="4.33333in"
     viewBox="0 0 390 390">
  <path id="Twitter BG"
        fill="#1d3f8a" stroke="none" fill-rule="evenodd"
        d="M 178.00,0.21
           C 178.00,0.21 205.00,0.21 205.00,0.21
             225.59,0.03 254.10,7.57 273.00,15.72
             298.21,26.59 318.97,41.14 337.96,61.00
             347.60,71.07 357.38,84.86 364.28,97.00
             400.78,161.19 398.67,241.01 358.31,303.00
             341.30,329.12 318.07,350.28 291.00,365.58
             267.04,379.12 231.64,389.96 204.00,390.00
             204.00,390.00 183.00,390.00 183.00,390.00
             168.35,389.82 146.01,384.35 132.00,379.67
             114.07,373.67 97.37,365.16 82.00,354.14
             5.65,299.43 -19.11,200.39 17.43,115.00
             37.00,69.26 76.96,31.72 123.00,13.45
             142.23,5.82 157.86,3.30 178.00,0.21 Z
           M 329.00,89.00
           C 321.61,91.58 304.06,100.58 298.00,100.71
             291.97,100.85 283.81,93.22 278.00,90.27
             269.15,85.79 259.76,84.89 250.00,85.00
             226.74,85.28 205.75,101.70 199.43,124.00
             195.52,137.77 197.40,140.00 198.00,153.00
             168.39,147.43 150.29,145.93 124.00,128.48
             114.96,122.48 107.69,116.68 100.00,109.00
             95.95,104.96 88.56,96.48 84.00,94.00
             80.73,105.58 77.07,107.70 77.00,122.00
             76.91,141.28 83.22,156.30 99.00,168.00
             87.80,167.75 85.78,164.29 76.00,162.00
             77.60,181.75 82.18,196.28 99.00,208.51
             104.43,212.46 110.27,215.39 117.00,216.00
             117.00,216.00 117.00,218.00 117.00,218.00
             117.00,218.00 96.00,218.00 96.00,218.00
             101.11,240.38 122.48,255.96 145.00,257.00
             127.62,271.92 101.77,280.03 79.00,280.00
             79.00,280.00 66.00,279.00 66.00,279.00
             72.02,286.65 83.05,290.61 92.00,293.95
             118.18,303.73 130.37,305.32 158.00,305.00
             158.00,305.00 168.00,304.09 168.00,304.09
             232.92,299.35 284.69,254.15 302.42,192.00
             305.29,181.94 308.88,164.30 309.00,154.00
             309.04,150.37 308.56,145.23 310.17,142.00
             312.22,137.91 317.61,134.08 321.00,130.91
             327.44,124.90 332.39,119.08 336.00,111.00
             336.00,111.00 308.00,119.00 308.00,119.00
             318.46,109.92 325.71,103.03 329.00,89.00 Z" />
</svg>
